<svg role="img" viewBox="0 0 24 24" fill="currentColor" xmlns="http://www.w3.org/2000/svg">
  <path d="M12 0C5.37 0 0 5.37 0 12c0 5.3 3.438 9.8 8.205 11.385.6.11.82-.258.82-.577v-2.234c-3.338.726-4.042-1.61-4.042-1.61-.546-1.38-1.333-1.747-1.333-1.747-1.09-.745.082-.73.082-.73 1.204.084 1.838 1.236 1.838 1.236 1.07 1.835 2.807 1.305 3.492.997.108-.776.42-1.305.763-1.605-2.665-.3-5.466-1.332-5.466-5.93 0-1.31.465-2.38 1.235-3.22-.124-.303-.535-1.523.117-3.176 0 0 1.008-.322 3.3 1.23.957-.266 1.983-.4 3.003-.404 1.02.004 2.047.138 3.006.404 2.287-1.552 3.292-1.23 3.292-1.23.655 1.653.243 2.873.12 3.176.77.84 1.234 1.91 1.234 3.22 0 4.61-2.807 5.625-5.48 5.92.43.37.823 1.1.823 2.22v3.293c0 .32.216.694.825.576C20.565 21.796 24 17.298 24 12c0-6.63-5.373-12-12-12z"/>
</svg>