<svg role="img" viewBox="0 0 24 24" fill="currentColor" xmlns="http://www.w3.org/2000/svg">
  <path d="M20.447 20.452h-3.554v-5.569c0-1.328-.025-3.037-1.852-3.037-1.853 0-2.136 1.445-2.136 2.94v5.666h-3.553V9h3.414v1.561h.049c.476-.9 1.637-1.85 3.37-1.85 3.602 0 4.267 2.372 4.267 5.455v6.286zM5.337 7.433a2.07 2.07 0 11.001-4.139 2.07 2.07 0 01-.001 4.14zm1.777 13.019H3.56V9h3.553v11.452zM22.225 0H1.771C.792 0 0 .774 0 1.729v20.542C0 23.226.792 24 1.771 24h20.451C23.2 24 24 23.226 24 22.271V1.729C24 .774 23.2 0 22.225 0z"/>
</svg>